<?xml version="1.0" standalone="no"?>
<!DOCTYPE svg PUBLIC "-//W3C//DTD SVG 20010904//EN"
 "http://www.w3.org/TR/2001/REC-SVG-20010904/DTD/svg10.dtd">
<svg version="1.0" xmlns="http://www.w3.org/2000/svg"
 width="1024.000000pt" height="1024.000000pt" viewBox="0 0 1024.000000 1024.000000"
 preserveAspectRatio="xMidYMid meet">
<metadata>
Created by potrace 1.14, written by Peter Selinger 2001-2017
</metadata>
<g transform="translate(0.000000,1024.000000) scale(0.100000,-0.100000)"
fill="#000000" stroke="none">
<path d="M90 7278 c0 -18 -20 -930 -44 -2025 l-44 -1993 77 -73 c42 -40 120
-115 174 -165 l97 -92 2120 0 2120 0 0 350 0 350 530 0 530 0 0 -350 0 -350
2120 0 2120 0 97 92 c54 50 133 126 177 167 l78 75 -26 1246 c-15 685 -28
1265 -29 1290 l-2 45 -123 5 -123 5 118 180 117 180 1 70 c0 173 -16 973 -21
998 l-6 27 -2232 0 -2233 0 -6 -67 c-3 -38 -14 -200 -23 -360 l-18 -293 -163
0 -163 0 -1 -52 c-1 -29 -4 -195 -8 -368 l-6 -315 -175 0 -175 0 -5 365 c-3
201 -7 366 -8 368 -1 1 -76 2 -166 2 l-164 0 -5 123 c-9 212 -27 510 -33 555
l-5 42 -2235 0 -2234 0 0 -32z m5775 -878 c0 -26 -5 -45 -12 -47 -9 -3 -13 10
-13 47 0 37 4 50 13 48 7 -3 12 -22 12 -48z m-372 -152 c10 -169 9 -188 -8
-188 -13 0 -15 23 -15 150 0 83 4 150 8 150 5 0 12 -51 15 -112z m-5014 -427
c1 -60 -3 -120 -9 -135 -5 -15 -12 -91 -15 -169 -4 -78 -11 -160 -16 -182 -12
-47 -28 -261 -35 -457 l-5 -138 480 0 481 0 2 -292 3 -293 748 -3 747 -2 0
-365 0 -365 -1318 0 -1318 0 3 143 c2 78 13 570 24 1092 21 988 30 1242 43
1263 5 8 36 12 96 12 l88 0 1 -109z m2981 -10 c0 -69 -4 -122 -10 -126 -6 -4
-10 -70 -10 -165 0 -95 -4 -161 -10 -165 -6 -4 -10 -59 -10 -133 0 -70 -5
-143 -10 -162 -6 -19 -13 -95 -15 -168 -2 -72 -7 -137 -10 -142 -4 -7 161 -10
483 -10 l489 0 6 -406 c4 -223 4 -520 0 -660 l-6 -254 -559 0 -558 0 0 243 c1
563 20 2205 26 2235 l7 32 93 0 94 0 0 -119z m2095 110 c3 -5 1 -12 -5 -16 -5
-3 -10 -25 -10 -49 0 -23 -5 -47 -11 -53 -5 -5 -14 -32 -18 -59 -8 -45 -9 -43
-10 37 -1 112 6 149 30 149 10 0 20 -4 24 -9z m2010 -88 c5 -65 4 -113 -4
-141 -6 -23 -11 -114 -11 -202 0 -95 -4 -161 -10 -165 -6 -4 -10 -64 -10 -146
0 -83 -4 -149 -11 -161 -8 -14 -9 -61 -4 -149 l7 -129 478 0 477 0 7 -37 c3
-21 6 -144 6 -273 0 -129 3 -245 6 -257 6 -23 8 -23 190 -23 139 0 186 3 189
13 3 6 1 214 -3 460 -5 344 -10 450 -20 456 -9 5 -14 76 -19 279 l-6 272 551
0 c361 0 552 -3 552 -10 0 -5 -9 -10 -21 -10 -11 0 -27 -7 -35 -15 -9 -8 -26
-15 -40 -15 -13 0 -24 -4 -24 -10 0 -5 -11 -10 -24 -10 -14 0 -28 -4 -31 -10
-3 -5 -15 -10 -26 -10 -10 0 -27 -4 -37 -9 -55 -29 -142 -61 -164 -61 -10 0
-18 -4 -18 -10 0 -5 -11 -10 -24 -10 -14 0 -31 -7 -40 -15 -8 -8 -24 -15 -35
-15 -11 0 -23 -4 -26 -10 -3 -5 -16 -10 -29 -10 -12 0 -26 -3 -30 -7 -9 -10
-78 -33 -98 -33 -10 0 -18 -4 -18 -10 0 -5 -11 -12 -25 -16 -21 -5 -25 -12
-25 -40 0 -19 -4 -34 -10 -34 -5 0 -10 -20 -10 -45 0 -25 -4 -45 -10 -45 -5 0
-10 -20 -10 -45 0 -25 -4 -45 -10 -45 -5 0 -10 -20 -10 -45 0 -25 -4 -45 -10
-45 -5 0 -10 -20 -10 -44 0 -25 -4 -48 -10 -51 -5 -3 -10 -26 -10 -51 0 -24
-4 -44 -10 -44 -5 0 -10 -13 -10 -30 l0 -30 469 0 468 0 7 -52 c3 -29 6 -125
6 -213 0 -88 4 -277 10 -420 5 -143 11 -344 13 -447 l3 -188 -1317 0 -1316 0
-8 843 c-10 1118 -12 1606 -7 1640 l5 27 92 0 93 0 7 -97z m-2782 -988 c9 -31
17 -60 17 -66 0 -6 6 -17 14 -25 12 -12 71 -14 339 -14 l324 0 7 -37 c3 -21 6
-152 6 -290 l0 -253 -370 0 -370 0 0 370 c0 204 4 370 8 370 4 0 16 -25 25
-55z m1116 -40 c1 -23 6 -46 13 -53 9 -9 142 -12 539 -12 l526 0 6 -37 c4 -21
9 -318 13 -660 l7 -623 -560 0 -560 0 -6 272 c-9 348 -9 1136 0 1167 6 23 7
23 14 5 4 -10 8 -37 8 -59z"/>
</g>
</svg>
